<?xml version="1.0" encoding="iso-8859-1"?>
<!-- Generator: Adobe Illustrator 19.0.0, SVG Export Plug-In . SVG Version: 6.00 Build 0)  -->
<svg version="1.1" id="Layer_1" xmlns="http://www.w3.org/2000/svg" xmlns:xlink="http://www.w3.org/1999/xlink" x="0px" y="0px"
	 viewBox="0 0 248.7 248.7" style="enable-background:new 0 0 248.7 248.7;" xml:space="preserve">
<g>
	<path style="fill:#1D1D1B;" d="M246.836,184.816c2.371,0.12,2.451,3.255,0.402,3.818c0.04,0.161,0.08,0.322,0.08,0.522
		c-0.924,18.686-18.405,24.995-33.836,30.903c-26.965,10.408-56.059,15.271-84.953,14.346
		c-46.013-1.487-96.767-18.767-115.936-64.176c0-0.04,0-0.04,0-0.04c-0.121-0.161-0.241-0.322-0.321-0.482
		c-0.603-0.844,0.683-1.768,1.366-1.045c0.121,0.08,0.201,0.201,0.322,0.322c0.241,0.04,0.442,0.161,0.563,0.402
		c0.08,0.161,0.201,0.281,0.281,0.442c9.845,10.247,21.138,19.691,36.207,19.771c10.448,0.04,23.709-5.345,26.201-16.918
		c3.577-16.999-10.006-18.968-20.173-20.495c-1.969-0.322-1.286-3.175,0.442-3.295c0.161-0.04,0.281,0,0.442,0
		c1.848-2.009,4.862-2.411,6.952-4.38c2.934-2.733,4.3-6.43,3.777-10.408c-0.603-4.541-3.456-8.439-7.876-9.966
		c-3.938-1.366-7.113,0-10.89,0.683c-1.447,0.241-2.612-1.407-1.487-2.572c0.442-0.442,0.884-0.804,1.366-1.165
		c3.617-4.179,6.47-8.158,7.434-13.864c1.929-10.89-7.676-12.096-15.793-11.212c-0.442,0.322-0.965,0.281-1.366,0.04
		c-1.808-0.121-1.728-2.974-0.08-3.617c0.201-0.08,0.402-0.121,0.603-0.201c5.947-10.89,5.264-23.87-4.822-32.43
		c-10.649-9.042-22.544-5.305-32.872,1.567c-1.648,1.085-3.014-0.563-2.773-2.09c-0.161-0.362-0.12-0.763,0.121-1.125
		C29.592,17.765,83.963,1.57,129.252,25.038c24.594,12.699,38.9,34.399,49.589,59.274
		C193.389,118.148,201.064,182.646,246.836,184.816z M243.219,189.156c0.04-0.12,0.08-0.201,0.08-0.281
		c-19.49-0.04-33.193-14.989-41.512-31.867c-13.784-27.969-20.053-59.033-34.801-86.6C136.325,12.942,69.697,6.834,22.72,41.153
		c10.328-0.402,21.218,4.621,27.607,12.297c7.354,8.881,7.836,18.807,3.335,28.451c6.51-2.974,14.266,2.09,17.079,8.439
		c3.215,7.274,2.09,16.034-1.929,22.866c7.073-2.009,14.989,1.849,18.084,8.68c3.536,7.756,0.482,16.436-5.787,21.66
		c21.982,2.733,26.563,28.572,10.649,42.757c-15.793,14.145-36.288,12.98-53.728,4.38c-6.108-2.451-11.855-6.269-16.798-10.77
		c23.067,32.35,60.198,47.017,100.143,49.589c21.258,1.366,42.757-0.482,63.493-5.465
		C202.953,219.698,241.41,212.183,243.219,189.156z M90.754,181.963c12.779-13.663,5.385-32.149-12.176-35.082
		c-1.768-0.281-1.607-2.853-0.201-3.456c0-0.04,0-0.12,0.04-0.161c4.983-5.425,8.801-13.02,4.822-20.173
		c-4.099-7.354-10.609-5.787-17.561-5.224c-0.482,0-0.804-0.161-1.085-0.442c-0.603-0.281-1.005-1.005-0.563-1.688
		c7.233-10.488,7.233-34.037-11.011-29.898c-0.482,0.121-0.965-0.04-1.326-0.321c-0.964,0.964-2.652-0.201-2.049-1.607
		c4.742-10.89,4.139-21.379-4.822-29.938c-7.997-7.595-17.843-8.198-28.17-8.077c-1.969,1.688-3.898,3.376-5.787,5.184
		c9.604-3.376,21.379-0.924,28.894,5.988c9.805,9.002,11.533,23.227,5.104,34.238c7.515-0.763,15.954,2.572,16.757,10.81
		c0.522,5.184-1.326,12.056-4.983,16.798c7.033,0.201,14.386,6.309,15.873,12.98c1.125,4.862-0.161,10.046-3.496,13.784
		c-1.045,1.165-2.692,2.612-4.541,3.657c17.842,3.496,23.991,25.237,7.354,37.815c-4.822,3.657-9.966,5.586-15.19,6.229
		c2.25,0.241,4.461,0.321,6.711,0.241C73.073,193.135,83.963,189.277,90.754,181.963z"/>
	<path style="fill:#33B3E2;" d="M243.299,188.875c0,0.08-0.04,0.161-0.08,0.281c-1.808,23.026-40.266,30.541-58.35,34.881
		c-20.736,4.983-42.235,6.831-63.493,5.465c-39.945-2.572-77.076-17.24-100.143-49.589c4.943,4.501,10.689,8.318,16.798,10.77
		c17.441,8.6,37.935,9.765,53.728-4.38c15.914-14.186,11.332-40.025-10.649-42.757c6.269-5.224,9.323-13.904,5.787-21.66
		c-3.094-6.832-11.011-10.689-18.084-8.68c4.019-6.832,5.144-15.592,1.929-22.866c-2.813-6.349-10.569-11.413-17.079-8.439
		c4.501-9.645,4.019-19.571-3.335-28.451c-6.389-7.676-17.28-12.699-27.607-12.297c46.977-34.319,113.605-28.21,144.266,29.255
		c14.748,27.567,21.017,58.631,34.801,86.6C210.106,173.886,223.809,188.835,243.299,188.875z M205.484,176.86
		c1.165,0.322,1.607-1.406,0.482-1.808c-3.416-1.326-6.068-4.219-6.992-7.756c-0.362-1.407-2.532-0.804-2.17,0.603
		C197.889,172.319,201.064,175.654,205.484,176.86z M202.229,182.365c0.884,0.603,1.648-0.804,0.804-1.406
		c-2.13-1.567-4.34-3.054-6.55-4.501c-0.924-0.603-1.728,0.844-0.844,1.487C197.809,179.472,199.979,180.959,202.229,182.365z
		 M175.426,105.249c0-0.322,0.04-0.683,0.04-1.005c0-0.522-0.844-0.522-0.844,0c0,0.321,0.04,0.683,0.04,1.005
		C174.662,105.771,175.426,105.771,175.426,105.249z M141.187,53.409c0.362,0.723,1.607,0.241,1.326-0.563
		c-2.009-5.626-6.229-9.886-11.654-12.337c-1.045-0.482-1.969,1.045-0.924,1.567C134.878,44.528,138.615,48.547,141.187,53.409z
		 M139.339,44.006c0.563,0.723,1.768-0.201,1.286-0.965c-1.929-2.934-4.661-5.385-8.037-6.47c-0.884-0.321-1.447,1.045-0.643,1.487
		C134.798,39.706,137.289,41.434,139.339,44.006z M109.521,151.985c4.38-2.773-4.34-10.087-6.269-11.614
		c-0.763-0.603-1.848,0.402-1.085,1.085c1.206,1.125,9.162,7.836,6.832,9.604C108.476,151.462,108.958,152.346,109.521,151.985z
		 M108.275,159.741c0.281,0.924,1.607,0.563,1.407-0.362c-0.965-4.862-3.336-10.247-7.515-13.181
		c-0.643-0.442-1.567,0.442-1.085,1.085C104.016,151.342,106.829,154.798,108.275,159.741z M94.17,218.412
		c0.884-0.04,0.884-1.406,0-1.406c-3.697,0-6.832-1.085-10.006-2.773c0.201-0.281,0.402-0.522,0.683-0.764
		c0.281-0.281-0.121-0.683-0.442-0.442c-0.442,0.322-0.884,0.603-1.326,0.924c-0.281,0.161-0.362,0.563-0.121,0.804
		C86.053,217.447,90.152,218.532,94.17,218.412z M71.747,83.388c0.402,0.924,1.849,0.603,1.567-0.442
		c-1.085-3.978-4.581-6.791-8.6-7.475c-0.764-0.12-1.125,1.005-0.322,1.206C67.889,77.561,70.42,80.052,71.747,83.388z"/>
	<path style="fill:#1D1D1B;" d="M205.967,175.051c1.125,0.402,0.683,2.13-0.482,1.808c-4.42-1.206-7.595-4.541-8.68-8.961
		c-0.362-1.406,1.808-2.009,2.17-0.603C199.899,170.832,202.551,173.725,205.967,175.051z"/>
	<path style="fill:#1D1D1B;" d="M203.033,180.959c0.844,0.603,0.08,2.009-0.804,1.406c-2.25-1.406-4.421-2.893-6.59-4.42
		c-0.884-0.643-0.08-2.09,0.844-1.487C198.693,177.904,200.903,179.391,203.033,180.959z"/>
	<path style="fill:#1D1D1B;" d="M175.466,104.244c0,0.321-0.04,0.683-0.04,1.005c0,0.522-0.764,0.522-0.764,0
		c0-0.322-0.04-0.683-0.04-1.005C174.622,103.722,175.466,103.722,175.466,104.244z"/>
	<path style="fill:#1D1D1B;" d="M142.513,52.847c0.281,0.804-0.964,1.286-1.326,0.563c-2.572-4.862-6.309-8.881-11.252-11.332
		c-1.045-0.522-0.12-2.049,0.924-1.567C136.285,42.961,140.504,47.221,142.513,52.847z"/>
	<path style="fill:#1D1D1B;" d="M140.625,43.041c0.482,0.764-0.723,1.688-1.286,0.965c-2.049-2.572-4.541-4.3-7.394-5.948
		c-0.804-0.442-0.241-1.808,0.643-1.487C135.963,37.656,138.696,40.108,140.625,43.041z"/>
	<path style="fill:#1D1D1B;" d="M103.252,140.371c1.929,1.527,10.649,8.841,6.269,11.614c-0.563,0.362-1.045-0.522-0.522-0.924
		c2.331-1.768-5.626-8.479-6.832-9.604C101.404,140.773,102.489,139.768,103.252,140.371z"/>
	<path style="fill:#1D1D1B;" d="M109.682,159.379c0.201,0.924-1.125,1.286-1.407,0.362c-1.447-4.943-4.26-8.399-7.193-12.458
		c-0.482-0.643,0.442-1.527,1.085-1.085C106.346,149.132,108.717,154.516,109.682,159.379z"/>
	<path style="fill:#1D1D1B;" d="M94.17,217.005c0.884,0,0.884,1.366,0,1.406c-4.019,0.12-8.117-0.964-11.212-3.657
		c-0.241-0.241-0.161-0.643,0.121-0.804c0.442-0.322,0.884-0.603,1.326-0.924c0.321-0.241,0.723,0.161,0.442,0.442
		c-0.281,0.241-0.482,0.482-0.683,0.764C87.339,215.92,90.473,217.005,94.17,217.005z"/>
	<path style="fill:#CCECF8;" d="M78.578,146.881c17.561,2.934,24.955,21.419,12.176,35.082
		c-6.791,7.314-17.682,11.172-27.407,11.654c-2.25,0.08-4.461,0-6.711-0.241c5.224-0.643,10.368-2.572,15.19-6.229
		c16.637-12.578,10.489-34.318-7.354-37.815c1.849-1.045,3.496-2.492,4.541-3.657c3.336-3.737,4.621-8.921,3.496-13.784
		c-1.487-6.671-8.841-12.779-15.873-12.98c3.657-4.742,5.505-11.614,4.983-16.798c-0.804-8.238-9.243-11.573-16.757-10.81
		c6.43-11.011,4.702-25.237-5.104-34.238c-7.515-6.912-19.289-9.363-28.894-5.988c1.889-1.808,3.818-3.496,5.787-5.184
		c10.328-0.121,20.173,0.482,28.17,8.077c8.961,8.56,9.564,19.048,4.822,29.938c-0.603,1.406,1.085,2.572,2.049,1.607
		c0.362,0.281,0.844,0.442,1.326,0.321c18.244-4.139,18.244,19.41,11.011,29.898c-0.442,0.683-0.04,1.407,0.563,1.688
		c0.281,0.281,0.603,0.442,1.085,0.442c6.952-0.563,13.462-2.13,17.561,5.224c3.978,7.153,0.161,14.748-4.822,20.173
		c-0.04,0.04-0.04,0.12-0.04,0.161C76.971,144.028,76.81,146.6,78.578,146.881z M92,163.518c0.12-1.005-1.607-1.246-1.728-0.241
		c-0.522,3.577-1.768,6.912-3.818,9.886c-0.643,0.924,0.804,1.728,1.447,0.844C90.232,170.872,91.598,167.416,92,163.518z"/>
	<path style="fill:#1D1D1B;" d="M90.272,163.277c0.12-1.005,1.848-0.764,1.728,0.241c-0.402,3.898-1.768,7.354-4.099,10.488
		c-0.643,0.884-2.09,0.08-1.447-0.844C88.504,170.189,89.75,166.853,90.272,163.277z"/>
	<path style="fill:#1D1D1B;" d="M73.314,82.946c0.281,1.045-1.165,1.366-1.567,0.442c-1.326-3.335-3.858-5.827-7.354-6.711
		c-0.804-0.201-0.442-1.326,0.322-1.206C68.733,76.154,72.229,78.967,73.314,82.946z"/>
</g>
<g>
</g>
<g>
</g>
<g>
</g>
<g>
</g>
<g>
</g>
<g>
</g>
<g>
</g>
<g>
</g>
<g>
</g>
<g>
</g>
<g>
</g>
<g>
</g>
<g>
</g>
<g>
</g>
<g>
</g>
</svg>
