<svg xmlns="http://www.w3.org/2000/svg" xmlns:xlink="http://www.w3.org/1999/xlink" version="1.1" x="0px" y="0px" viewBox="0 0 100 100" enable-background="new 0 0 100 100" xml:space="preserve"><path fill="#000000" d="M48.985,17.753c54.559,0.183,44.665,65.004,44.665,65.004h-5.04c0.47-30.446-11.863-31.051-11.863-31.051  c-12.229-0.633-14.408,31.051-14.408,31.051H47.302c-0.549-14.28-10.767-14.646-10.767-14.646  c-12.45-0.184-13.142,14.646-13.142,14.646L9.805,82.759C-11.067,15.739,48.985,17.753,48.985,17.753z M71.596,33.315  c-0.961,0-1.739,0.779-1.739,1.739c0,0.96,0.778,1.739,1.739,1.739c0.96,0,1.739-0.779,1.739-1.739  C73.335,34.094,72.556,33.315,71.596,33.315z M66.935,27.19c0,0-19.792-11.515-17.389,10.707c0,0,0.997,19.525,11.772,11.918"></path></svg>