<svg xmlns="http://www.w3.org/2000/svg" xmlns:xlink="http://www.w3.org/1999/xlink" version="1.1" x="0px" y="0px" viewBox="0 0 209.847 137.247" style="enable-background:new 0 0 209.847 137.247;" xml:space="preserve"><g><path d="M57.416,32.402c-16.848,5.661-30.701,14.408-40.619,24.49C6.237,67.655,0.03,80.004,0,92   c-0.037,8.849,3.591,17.402,10.965,23.933c5.588,4.975,13.196,8.85,22.93,11.397c0.908,0.893,1.969,1.877,3.238,2.986   c17.699,15.451,29.813,1.232,26.846-5.76c-2.357-5.553-16.834-4.31-22.689-3.563c-11.628-2.222-19.846-6.162-25.129-10.886   C10.344,104.87,7.84,98.803,7.804,92c-0.03-9.184,4.983-19.913,14.561-29.637c0.09-0.091,0.187-0.181,0.276-0.271   c-1.606,2.987-2.898,5.985-3.871,8.921c-4.268,12.884-2.665,24.535,2.818,28.502c1.697,1.228,3.979,2.276,6.643,3.167   c-3.334-13.289-5.721-34.95,10.154-47.328c17.726-13.822,41.6-11.776,54.652,4.491c13.055,16.262-8.905,31.993-13.51,35.123   c-2.955,2.006,16.822,0.779,27.043,4.377c2.252,0.792,3.442,2.596,3.987,4.64c4.366-0.032,8.741-0.093,12.788-0.195   c-0.299,0.687-0.475,1.442-0.494,2.237c-0.082,3.314,2.539,6.068,5.854,6.15l64.045,1.604c0.05,0,0.101,0,0.15,0   c3.104,0,5.717-2.386,5.98-5.496c0.27-3.158-1.979-5.993-5.116-6.448l-4.918-0.716c-0.165,0.644-0.52,1.12-1.167,1.412   c-0.254,0.113-0.525,0.171-0.805,0.171c-0.997,0-1.732-0.606-2.99-2.306l-2.348-0.342c-0.186,0.94-0.605,1.605-1.493,1.886   l-0.313,0.093h-0.279c-1.16-0.002-1.903-0.834-2.957-2.713l-3.638-0.529c-0.025,0.138-0.05,0.272-0.071,0.39   c-0.4,2.222-0.746,4.143-2.518,4.427l-0.191,0.026h-0.145c-1.342,0-2.16-1.124-3.017-2.549c-0.026,0.138-0.051,0.268-0.072,0.388   c-0.571,3.126-0.948,5.191-2.85,5.334l-0.093,0.007h-0.066c-1.603,0-2.385-1.546-3.305-3.356c-0.184-0.363-0.449-0.891-0.67-1.267   c-0.137,0.034-0.281,0.073-0.427,0.114c-0.614,0.17-1.308,0.361-2.083,0.361c-0.814,0-1.523-0.229-2.148-0.433   c-0.369-0.119-0.75-0.243-0.986-0.252c-1.67-0.063-2.342-1.681-2.992-3.245c-0.136-0.326-0.34-0.818-0.498-1.127   c-0.512-0.145-0.939-0.391-1.299-0.63c-0.412,1.085-0.934,2.704-1.327,3.927c-1.663,5.176-2.224,6.92-4.038,6.918l-0.164-0.001   l-0.142-0.023c-2.1-0.336-2.006-2.284-1.661-9.53c0.017-0.354,0.035-0.734,0.055-1.127c-1.027,2.029-1.777,3.048-3.078,3.048   l-0.278-0.006l-0.063-0.018c-0.177,0.053-0.493,0.193-0.72,0.295c-0.647,0.29-1.383,0.618-2.199,0.618   c-0.291,0-0.574-0.045-0.842-0.13c-0.811-0.255-1.448-0.741-2.01-1.167c-0.305-0.232-0.65-0.495-0.855-0.573   c-1.265-0.481-1.604-1.755-1.775-3.047c-0.355,0.405-0.705,0.82-0.99,1.159c-2.322,2.742-3.316,3.855-4.631,3.854   c-0.328,0-0.652-0.08-0.941-0.233c-0.313-0.166-0.792-0.359-1.255-0.549c-0.734-0.295-1.49-0.603-2.105-0.986   c-0.74-0.463-1.281-1.178-1.805-1.869c-0.24-0.314-0.602-0.79-0.773-0.917c-0.745-0.55-1.221-1.393-1.64-2.138   c-0.153-0.275-0.375-0.668-0.523-0.862c-0.241-0.058-0.721-0.106-1.025-0.136c-1.087-0.109-2.322-0.233-3.141-1.079   c-1.408-1.45-0.18-3.153,2.516-6.882c0.25-0.347,0.535-0.742,0.822-1.145c-0.887,0.247-1.711,0.443-2.396,0.443   c-0.759,0-1.273-0.248-1.612-0.521c-0.129-0.014-0.345-0.027-0.691-0.027c-0.303,0-0.627,0.01-0.953,0.018   c-0.358,0.01-0.717,0.019-1.056,0.019c-0.937,0-2.676-0.001-3.407-1.349c-0.984-1.82,0.641-3.021,4.986-6.229   c1.232-0.908,3-2.214,3.731-2.899c0.014-0.4,0.117-0.773,0.254-1.111c-0.921,0.06-2.027,0.168-3.119,0.273   c-1.736,0.168-3.531,0.343-4.768,0.343c-0.804,0-2.685,0-3.074-1.679c-0.389-1.688,1.155-2.738,2.945-3.953   c0.203-0.138,0.458-0.311,0.707-0.486c-1.029-0.625-2.262-1.41-2.359-2.828c-0.093-1.325,0.858-2.268,1.623-3.023   c0.023-0.022,0.047-0.047,0.071-0.071c-0.192-0.108-0.387-0.216-0.542-0.302c-1.473-0.811-2.995-1.648-2.936-3.272   c0.026-0.772,0.251-1.492,0.447-2.128c0.129-0.418,0.265-0.852,0.285-1.141c0.149-2.045,2.252-2.224,7.334-2.656   c0.039-0.004,0.077-0.006,0.115-0.01c-2.432-0.972-3.824-1.763-3.572-3.421c0.297-1.954,2.436-2.075,5.981-2.274   c0.183-0.01,0.387-0.021,0.6-0.034c-0.799-0.64-1.477-1.366-1.557-2.286c-0.271-0.271-0.775-0.682-1.104-0.947   c-1.395-1.136-2.838-2.311-2.356-3.953c0.356-1.213,1.464-1.822,2.274-2.267c0.203-0.114,0.498-0.275,0.648-0.384   c0.5-1.109,1.641-1.563,2.485-1.898c0.205-0.083,0.494-0.196,0.657-0.282c0.706-1.213,2.296-1.213,2.844-1.213   c0.495,0,1.035,0.037,1.566,0.074c0.426,0.028,0.832,0.057,1.178,0.062c0.009-0.036,0.015-0.071,0.022-0.11   c0.046-0.244,0.099-0.515,0.183-0.81c-0.766-0.762-2.348-2.087-3.678-3.185c-13.456-4.436-29.561-5.734-50.646,0.608   c-2.129,0.64-4.305,1.353-6.537,2.153C58.729,31.87,58.082,32.143,57.416,32.402z"></path><path d="M101.752,101.051c-9.529-3.354-34.693-2.211-31.939-4.08c4.294-2.918,33.927-18.304,21.756-33.465   C79.398,48.34,58.405,43.18,38.177,60.035c-20.226,16.855-2.148,46.963-0.462,51.767c1.684,4.808,65.514,4.36,69.096-2.056   C108.096,107.444,107.096,102.931,101.752,101.051z"></path><path d="M122.287,31.871c-0.502,0.895-0.342,1.623-0.788,2.548c-0.444,0.923-5.099-0.36-5.489,0.589   c-0.391,0.946-2.72,1.059-3.059,2.029c-0.338,0.966-2.52,1.361-2.808,2.347c-0.288,0.982,3.783,3.091,3.541,4.089   c-0.241,0.996,3.745,2.676,3.548,3.684c-0.197,1.006-8.446,0.473-8.6,1.486c-0.154,1.015,7.647,2.945,7.534,3.965   c-0.113,1.02-11.322,0.961-11.396,1.982c-0.074,1.025-0.693,2.178-0.73,3.199c-0.036,1.029,3.997,2.217,3.997,3.237   c0,1.036-2.286,2.25-2.216,3.244c0.072,1.033,2.979,1.85,3.123,2.837c0.15,1.022-4.684,3.179-4.459,4.153   c0.232,1.005,11.432-1.085,11.74-0.13c0.316,0.977-1.318,2.174-0.923,3.1c0.401,0.941-9.477,6.991-8.997,7.878   c0.486,0.899,5.039-0.105,5.601,0.736c0.565,0.847,5.61-1.595,6.249-0.806c0.639,0.788-6.072,8.386-5.364,9.117   c0.705,0.727,3.212,0.354,3.982,1.022c0.763,0.663,1.299,2.389,2.122,2.994c0.812,0.597,1.6,2.168,2.468,2.711   c0.854,0.534,2.346,0.99,3.25,1.472c0.889,0.473,5.805-6.857,6.738-6.438c0.918,0.414,0.434,4.246,1.393,4.61   c0.939,0.356,1.791,1.399,2.768,1.708c0.959,0.305,2.52-1.109,3.512-0.851c0.975,0.253,3.734-7.806,4.738-7.597   c0.984,0.206-0.733,15.072,0.278,15.234c0.995,0.161,3.705-11.537,4.724-11.418c1,0.116,1.742,1.252,2.764,1.33   c1.006,0.076,1.731,4.209,2.754,4.248c1.008,0.037,2.043,0.684,3.067,0.684c1.023,0,2.061-0.549,3.07-0.586   c1.023-0.037,2.433,4.809,3.438,4.731c1.021-0.077,1.396-7.558,2.396-7.674c1.018-0.118,2.733,4.653,3.728,4.492   c1.012-0.163,1.042-5.686,2.028-5.892c1.004-0.211,0.885-4.241,1.859-4.495c0.992-0.258,4.672,9.086,5.631,8.782   c0.979-0.31-0.395-7.373,0.545-7.731c0.959-0.365,5.979,8.807,6.896,8.394c0.936-0.422-1.297-7.751-0.41-8.224   c0.906-0.482,4.56,3.521,5.414,2.986c0.867-0.542-0.564-4.795,0.248-5.394c0.823-0.606-1.811-5.229-1.049-5.893   c0.77-0.669,5.016,2.618,5.721,1.89c0.709-0.731,6.756,2.816,7.396,2.026c0.638-0.788-8.693-9.046-8.128-9.892   c0.562-0.842,3.802,0.301,4.287-0.599c0.479-0.886,4.511-0.094,4.912-1.037c0.395-0.923-5.402-4.074-5.086-5.052   c0.308-0.953-0.637-1.832-0.404-2.836c0.225-0.974,9.836-0.143,9.986-1.164c0.145-0.988-0.598-2.371-0.525-3.402   c0.069-0.995-2.744-2.238-2.744-3.274c0-1.021,2.828-2.163,2.792-3.191c-0.036-1.022-4.182-1.87-4.257-2.896   c-0.073-1.021,0.332-2.064,0.218-3.086c-0.112-1.02-0.761-1.945-0.914-2.959c-0.153-1.014,4.063-2.847,3.867-3.853   c-0.196-1.008-2.924-1.567-3.165-2.563c-0.242-0.998-4.703-0.81-4.992-1.793c-0.29-0.984,7.875-4.749,7.537-5.715   c-0.34-0.971-7.852,0.684-8.24-0.263c-0.392-0.95,1.198-2.726,0.754-3.648c-0.445-0.925,0.78-2.802,0.279-3.694   c-0.502-0.896,3.466-4.869,2.906-5.729c-0.56-0.858-5.391,0.843-6.01,0.023c-0.615-0.817,0.051-3.021-0.626-3.795   c-0.675-0.769-4.878,1.561-5.612,0.841c-0.729-0.714-1.354-1.552-2.145-2.215c-0.778-0.654-3.591,1.502-4.432,0.9   c-0.826-0.591,1.324-5.633,0.436-6.17c-0.867-0.523-0.926-3.022-1.854-3.492c-0.901-0.455-6.127,8.602-7.087,8.201   c-0.932-0.389-1.744,0.146-2.73-0.188c-0.955-0.323,1.375-11.242,0.367-11.512c-0.973-0.261-1.979-1.721-3.003-1.929   c-0.985-0.2-3.827,10.131-4.862,9.979c-0.994-0.144-1.32-4.74-2.361-4.836c-1.004-0.092-1.965-0.721-3.01-0.766   c-1.006-0.045-2.021-0.807-3.067-0.807S154.992-0.043,153.987,0c-1.045,0.047-2.061,3.55-3.063,3.643   c-1.041,0.097-1.729,3.588-2.725,3.732c-1.035,0.15-2.006,0.424-2.992,0.625c-1.025,0.208-3.555-5.389-4.528-5.129   c-1.01,0.271-1.023,4.553-1.979,4.877c-0.988,0.334-1.304,2.5-2.234,2.89c-0.962,0.401-0.088,4.321-0.99,4.778   c-0.927,0.469-4.956-4.852-5.823-4.326c-0.888,0.536-3.393-0.91-4.22-0.319c-0.841,0.602,3.816,8.319,3.037,8.974   c-0.79,0.664,0.247,2.728-0.481,3.441c-0.734,0.722-3.546-1.018-4.219-0.248c-0.678,0.773-5.979-2.229-6.596-1.41   c-0.618,0.818-4.712-0.383-5.271,0.476C111.344,22.863,122.788,30.977,122.287,31.871z M137.795,32.925   c1.045,0,2.057,0.235,2.986,0.687c4.894-3.692,10.892-5.709,17.05-5.709c6.155,0,12.153,2.017,17.048,5.709   c0.933-0.451,1.943-0.687,2.986-0.687c3.844,0,6.972,3.128,6.972,6.972c0,1.523-0.503,2.983-1.416,4.183   c1.79,3.775,2.732,7.946,2.732,12.146c0,15.615-12.706,28.321-28.322,28.321S129.51,71.84,129.51,56.225   c0-4.203,0.941-8.374,2.731-12.149c-0.913-1.197-1.415-2.657-1.415-4.179C130.826,36.053,133.951,32.925,137.795,32.925z"></path><path d="M132.824,39.897c0,1.548,0.725,2.915,1.836,3.828c-2.01,3.719-3.152,7.975-3.152,12.499   c0,14.539,11.783,26.323,26.323,26.323c14.536,0,26.322-11.784,26.322-26.323c0-4.523-1.143-8.78-3.153-12.499   c1.113-0.912,1.838-2.279,1.838-3.828c0-2.741-2.23-4.972-4.973-4.972c-1.188,0-2.266,0.437-3.121,1.134   c-4.575-3.84-10.473-6.157-16.913-6.157c-6.441,0-12.339,2.316-16.913,6.157c-0.856-0.697-1.934-1.134-3.122-1.134   C135.055,34.925,132.824,37.156,132.824,39.897z M167.858,45.6c2.02,0,3.656,1.638,3.656,3.656s-1.637,3.656-3.656,3.656   c-2.018,0-3.656-1.638-3.656-3.656S165.84,45.6,167.858,45.6z M155.196,55.889c-1.127,0.818-1.867,2.137-1.867,3.635   c0,2.487,2.018,4.504,4.504,4.504c2.485,0,4.502-2.017,4.502-4.504c0-1.498-0.74-2.816-1.867-3.635   c1.132-0.405,2.346-0.637,3.616-0.637c5.937,0,10.749,4.812,10.749,10.748c0,5.937-4.813,10.749-10.749,10.749   c-2.335,0-4.489-0.752-6.252-2.017c-1.763,1.264-3.917,2.017-6.251,2.017c-5.937,0-10.748-4.812-10.748-10.749   c0-5.936,4.811-10.748,10.748-10.748C152.851,55.252,154.065,55.484,155.196,55.889z M147.803,45.6   c2.021,0,3.656,1.638,3.656,3.656s-1.635,3.656-3.656,3.656c-2.018,0-3.654-1.638-3.654-3.656S145.785,45.6,147.803,45.6z"></path><circle cx="147.915" cy="61.932" r="1.416"></circle><circle cx="145.081" cy="67.015" r="1.417"></circle><circle cx="148.415" cy="71.348" r="1.416"></circle><circle cx="167.748" cy="61.932" r="1.416"></circle><circle cx="170.581" cy="67.015" r="1.417"></circle><circle cx="167.248" cy="71.348" r="1.416"></circle></g></svg>