<svg xmlns="http://www.w3.org/2000/svg" xmlns:xlink="http://www.w3.org/1999/xlink" version="1.2" baseProfile="tiny" x="0px" y="0px" viewBox="0 0 100 100" xml:space="preserve"><path d="M50,15c-15.188,0-27.5,12.312-27.5,27.5V50h55v-7.5C77.5,27.312,65.188,15,50,15z M70,42.5l-40,0c0-11.028,8.972-20,20-20  C61.028,22.5,70,31.472,70,42.5L70,42.5z"></path><path d="M22.5,57.5c0,1.378-1.122,2.5-2.5,2.5c-6.893,0-12.5,5.607-12.5,12.5V80h5v-7.5c0-4.136,3.364-7.5,7.5-7.5  s7.5-3.364,7.5-7.5V55h-5V57.5z"></path><path d="M32.5,62.5c0,4.136-3.364,7.5-7.5,7.5s-7.5,3.364-7.5,7.5V80h5v-2.5c0-1.378,1.122-2.5,2.5-2.5  c6.893,0,12.5-5.607,12.5-12.5V55h-5V62.5z"></path><path d="M92.5,72.5C92.5,65.607,86.893,60,80,60c-1.378,0-2.5-1.122-2.5-2.5V55h-5v2.5c0,4.136,3.364,7.5,7.5,7.5s7.5,3.364,7.5,7.5  V80h5V72.5z"></path><path d="M62.5,55v7.5C62.5,69.393,68.107,75,75,75c1.378,0,2.5,1.122,2.5,2.5V80h5v-2.5c0-4.136-3.364-7.5-7.5-7.5  s-7.5-3.364-7.5-7.5V55H62.5z"></path><path d="M35,87.5c6.893,0,12.5-5.607,12.5-12.5V55h-5v20c0,4.136-3.364,7.5-7.5,7.5V87.5z"></path><path d="M52.5,55v17.5c0,8.271,6.729,15,15,15v-5c-5.514,0-10-4.486-10-10V55H52.5z"></path><path d="M87.5,12.5C87.5,8.364,84.136,5,80,5s-7.5,3.364-7.5,7.5S75.864,20,80,20S87.5,16.636,87.5,12.5z M80,15  c-1.378,0-2.5-1.122-2.5-2.5S78.622,10,80,10s2.5,1.122,2.5,2.5S81.378,15,80,15z"></path><path d="M12.5,17.5C8.364,17.5,5,20.864,5,25s3.364,7.5,7.5,7.5S20,29.136,20,25S16.636,17.5,12.5,17.5z M12.5,27.5  c-1.378,0-2.5-1.122-2.5-2.5s1.122-2.5,2.5-2.5S15,23.622,15,25S13.878,27.5,12.5,27.5z"></path><path d="M88.75,22.5c-3.446,0-6.25,2.804-6.25,6.25S85.304,35,88.75,35S95,32.196,95,28.75S92.196,22.5,88.75,22.5z M88.75,30  c-0.689,0-1.25-0.561-1.25-1.25s0.561-1.25,1.25-1.25S90,28.061,90,28.75S89.439,30,88.75,30z"></path></svg>