<svg xmlns="http://www.w3.org/2000/svg" data-name="Layer 1" viewBox="0 0 100 100" x="0px" y="0px"><title>sea</title><path d="M91.55859,41.73457l-3.85254.77148c-0.19824.03906-4.68945,1.00781-9.22168,7.6748A76.39878,76.39878,0,0,0,56.542,45.20625C51.82813,42.05,54.74316,33.84492,54.77344,33.76289l0.792-2.15918-2.29492.14551c-8.44043.53418-13.88965,7.75-14.72363,13.44922-4.05469.10742-16.15039,0.73828-27.03027,4.43945l-1.78613.60742,0.99512,1.60352c0.29688,0.47949,7.41406,11.75488,16.61035,11.46289,2.60645-.07227,5.25293-0.23437,7.58691-0.37793,3.74316-.22852,8.38379-0.51172,9.4209-0.05664,1.53027,1.81543,4.4502,4.81836,7.3877,5.35254l1.94922,0.35449L53.124,62.73262a52.48147,52.48147,0,0,1,23.2627-3.626c0.51563,2.30566,2.043,7.18457,5.92676,8.58789L84.373,68.43769l-0.0498-2.18945c-0.00391-.14453-0.27246-14.5127,4.876-21.37109ZM81.36816,63.3166a13.87387,13.87387,0,0,1-2.2334-5.82031L78.97461,56.299l-1.20312-.09961c-15.90234-1.31055-26.48828,4.05078-26.93066,4.28027l-0.90137.46582,0.32422,3.40137a19.66842,19.66842,0,0,1-3.70117-3.49219c-0.7627-.91309-2.2041-1.22363-4.90039-1.22363-1.73535,0-3.99219.12891-6.92285,0.30859-2.31055.1416-4.93066,0.30273-7.4873,0.374a9.81754,9.81754,0,0,1-4.3786-.99457l2.02606-1.86285,4.22559,1,4.2373-2.11816,3.4707,0.81641,0.6875-2.91992-4.5293-1.06641-4.2334,2.11816L24.042,54.16914l-3.86066,3.54877a29.139,29.139,0,0,1-5.78485-5.85443C26.45313,48.215,39.73535,48.177,39.93262,48.177h0.001l1.502,0.002V46.677c0-3.52734,3.37988-10.03125,9.86914-11.6084-0.74707,3.4502-1.25684,9.80371,3.998,12.90039l0.30664,0.18066L55.96484,48.174a72.90863,72.90863,0,0,1,22.47754,5.24121l1.19629,0.53906L80.332,52.841a23.31112,23.31112,0,0,1,3.77832-4.71484A51.07517,51.07517,0,0,0,81.36816,63.3166Z"></path></svg>