<svg xmlns="http://www.w3.org/2000/svg" xmlns:xlink="http://www.w3.org/1999/xlink" version="1.1" x="0px" y="0px" viewBox="-255 347 100 100" style="enable-background:new -255 347 100 100;" xml:space="preserve"><path d="M-178.6,357.4c-2.9-0.3-5.8,0.4-8.2,2.1c-16,10.9-17.7,7.8-17.7,7.8c1.3,5.8,16,1,21.6-1c1.7-0.6,3.7-0.1,4.9,1.3  c1.6,2,0.7,3.8-0.5,5c-1.1,1.2-2.8,1.5-4.3,0.9c-16.2-6.3-26.3,2.6-29.5,4.7c-0.6,0.4-1,0.7-1.7,1.2c-4.4,2.5,2.6,4,2.6,4  c2.9,0.9,2.8,1.7,2.1,2.6c-0.8,0.9-2.4,1.6-3.6,1.9c-33.8,8.4-34.7,34.8-33.4,46.2c0.3,2.4,3,3.5,4.9,2  c20.4-16.6,35.1-10.7,41.4-6.5c1.4,0.9,3.2-0.1,3.2-1.7c0-16.4,9.8-27.4,13.1-30.7c0.6-0.6,1.4-1.1,2.2-1.2  c10.3-2.2,15.5-12.7,17-16.5c0.3-0.8,0.6-1.5,0.7-2.3C-161,361.7-171.8,358.2-178.6,357.4z M-192.8,386.6c-1.7,0-3-1.3-3-3  s1.3-3,3-3c1.7,0,3,1.3,3,3S-191.1,386.6-192.8,386.6z M-180.2,390.5c-1.3,0.1-2.5-0.8-2.8-2.1c-0.5-1.9-0.6-4.6,2.2-4.8  c0,0,7.3,0.3,13.2-3.8C-167.6,379.7-170.4,390.1-180.2,390.5z"></path></svg>