<svg xmlns:dc="http://purl.org/dc/elements/1.1/" xmlns:cc="http://creativecommons.org/ns#" xmlns:rdf="http://www.w3.org/1999/02/22-rdf-syntax-ns#" xmlns:svg="http://www.w3.org/2000/svg" xmlns="http://www.w3.org/2000/svg" xmlns:sodipodi="http://sodipodi.sourceforge.net/DTD/sodipodi-0.dtd" xmlns:inkscape="http://www.inkscape.org/namespaces/inkscape" viewBox="0 0 32 32" version="1.1" x="0px" y="0px"><g transform="translate(0,-1020.3622)"><path style="color:#000000;font-style:normal;font-variant:normal;font-weight:normal;font-stretch:normal;font-size:medium;line-height:normal;font-family:sans-serif;text-indent:0;text-align:start;text-decoration:none;text-decoration-line:none;text-decoration-style:solid;text-decoration-color:#000000;letter-spacing:normal;word-spacing:normal;text-transform:none;direction:ltr;block-progression:tb;writing-mode:lr-tb;baseline-shift:baseline;text-anchor:start;white-space:normal;clip-rule:nonzero;display:inline;overflow:visible;visibility:visible;opacity:1;isolation:auto;mix-blend-mode:normal;color-interpolation:sRGB;color-interpolation-filters:linearRGB;solid-color:#000000;solid-opacity:1;fill:#000000;fill-opacity:1;fill-rule:nonzero;stroke:none;stroke-width:0.99999988;stroke-linecap:round;stroke-linejoin:round;stroke-miterlimit:4;stroke-dasharray:none;stroke-dashoffset:0;stroke-opacity:1;color-rendering:auto;image-rendering:auto;shape-rendering:auto;text-rendering:auto;enable-background:accumulate" d="M 16 2 C 8.273936 2 2 8.274 2 16 C 2 23.7261 8.273936 30 16 30 C 23.726064 30 30 23.7261 30 16 C 30 8.274 23.726064 2 16 2 z M 16 3 C 23.185624 3 29 8.8144 29 16 C 29 23.1857 23.185624 29 16 29 C 8.814376 29 3 23.1857 3 16 C 3 8.8144 8.814376 3 16 3 z M 15.998047 8.9921875 L 15.998047 8.9941406 C 15.083597 8.9941406 14.16997 9.3048344 13.427734 9.9277344 C 11.943253 11.173334 11.56623 13.313987 12.535156 14.992188 L 12.652344 15.220703 A 0.50004994 0.50004994 0 0 0 12.664062 15.240234 C 13.187593 16.147034 13.091974 17.277784 12.423828 18.083984 C 11.755698 18.890184 10.660114 19.195609 9.671875 18.849609 A 0.50004994 0.50004994 0 1 0 9.3417969 19.792969 C 10.721508 20.276169 12.260534 19.847956 13.193359 18.722656 C 14.120936 17.603456 14.258133 16.024219 13.541016 14.761719 L 13.529297 14.738281 L 13.412109 14.509766 A 0.50004994 0.50004994 0 0 0 13.400391 14.488281 C 12.670782 13.224581 12.952498 11.627453 14.070312 10.689453 C 15.188114 9.7514531 16.807979 9.7514531 17.925781 10.689453 C 19.043595 11.627453 19.325312 13.224581 18.595703 14.488281 A 0.50004994 0.50004994 0 0 0 18.585938 14.509766 L 18.466797 14.738281 C 17.735456 16.005081 17.870556 17.596956 18.804688 18.722656 C 19.738854 19.848456 21.278372 20.274363 22.658203 19.789062 A 0.50004994 0.50004994 0 1 0 22.328125 18.845703 C 21.33972 19.193403 20.243296 18.890684 19.574219 18.083984 C 18.90513 17.277684 18.808183 16.145681 19.332031 15.238281 A 0.50004994 0.50004994 0 0 0 19.34375 15.220703 L 19.462891 14.990234 C 20.431816 13.312034 20.054795 11.171381 18.570312 9.9257812 C 17.828077 9.3028812 16.912496 8.9921875 15.998047 8.9921875 z M 14.498047 11.990234 A 0.49999994 0.49999994 0 0 0 13.998047 12.490234 A 0.49999994 0.49999994 0 0 0 14.498047 12.990234 A 0.49999994 0.49999994 0 0 0 14.998047 12.490234 A 0.49999994 0.49999994 0 0 0 14.498047 11.990234 z M 17.498047 11.990234 A 0.49999994 0.49999994 0 0 0 16.998047 12.490234 A 0.49999994 0.49999994 0 0 0 17.498047 12.990234 A 0.49999994 0.49999994 0 0 0 17.998047 12.490234 A 0.49999994 0.49999994 0 0 0 17.498047 11.990234 z M 15.441406 13.992188 A 0.50064427 0.50064427 0 0 0 15.492188 14.992188 L 16.492188 14.992188 A 0.50004994 0.50004994 0 1 0 16.492188 13.992188 L 15.492188 13.992188 A 0.50004994 0.50004994 0 0 0 15.441406 13.992188 z M 14.835938 18.484375 A 0.50004994 0.50004994 0 0 0 14.394531 18.742188 C 13.590289 20.135188 12.106533 20.992188 10.498047 20.992188 A 0.50004994 0.50004994 0 1 0 10.498047 21.992188 C 12.462197 21.992188 14.279646 20.943188 15.261719 19.242188 A 0.50004994 0.50004994 0 0 0 14.835938 18.484375 z M 17.144531 18.484375 A 0.50004994 0.50004994 0 0 0 16.734375 19.240234 C 17.716447 20.941234 19.533896 21.990234 21.498047 21.990234 A 0.50004994 0.50004994 0 1 0 21.498047 20.990234 C 19.88956 20.990234 18.405806 20.133234 17.601562 18.740234 A 0.50004994 0.50004994 0 0 0 17.144531 18.484375 z M 15.996094 20.287109 A 0.50004994 0.50004994 0 0 0 15.625 20.488281 C 15.131866 21.120881 14.526062 21.656259 13.837891 22.068359 A 0.50004994 0.50004994 0 1 0 14.351562 22.925781 C 15.145599 22.450381 15.845067 21.831463 16.414062 21.101562 A 0.50004994 0.50004994 0 0 0 16.046875 20.289062 A 0.50004994 0.50004994 0 0 0 15.996094 20.289062 L 15.996094 20.287109 z " transform="translate(0,1020.3622)"></path></g></svg>