<svg xmlns="http://www.w3.org/2000/svg" xmlns:xlink="http://www.w3.org/1999/xlink" version="1.1" x="0px" y="0px" viewBox="0 0 100 100" enable-background="new 0 0 100 100" xml:space="preserve"><path d="M21.383,53.389c0.524-2.476,3.288-4.419,9.75-5.166c-5.31-3.258-9.409-8.351-11.456-14.41  c-5.014,3.235-8.464,7.651-10.018,12.87C12.651,50.291,16.846,52.672,21.383,53.389z"></path><path d="M14.754,64.447c4.112,1.941,8.885,1.959,12.931,0.045c-3.056-2.926-5.782-6.277-6.306-9.199  c-4.653-0.668-8.995-2.922-12.264-6.379c-0.236,1.267-0.37,2.573-0.393,3.916C8.646,57.57,11.231,61.416,14.754,64.447z"></path><path d="M36.946,71.761c-1.134-0.651-4.478-2.963-7.784-5.904c-2.442,1.294-5.15,1.942-7.872,1.942c-0.67,0-1.342-0.044-2.011-0.123  c6.71,4.027,14.139,5.85,14.139,5.85S40.826,73.996,36.946,71.761z"></path><path d="M33.829,74.408c0,0,2.94,0.375,5.352-0.842c0,0,3.057,1.547,7.23,1.193c4.177-0.352-0.373,3.078-5.781,2.217  c0,0,1.803,2.115,4.781,2.508c2.981,0.391-1.645,3.135-8.465,0C30.125,76.348,33.829,74.408,33.829,74.408z"></path><g><path d="M42.89,59.281c-0.214,0-0.43-0.072-0.605-0.222c-3.829-3.229-3.829-8.846-3.826-9.084c0.003-0.517,0.424-0.933,0.94-0.933   c0.003,0,0.005,0,0.007,0c0.52,0.003,0.938,0.428,0.934,0.947c0,0.071,0.021,4.985,3.158,7.631   c0.397,0.336,0.447,0.928,0.113,1.324C43.424,59.168,43.157,59.281,42.89,59.281z"></path></g><g><path d="M37.648,59.592c-0.214,0-0.43-0.072-0.605-0.221c-3.828-3.229-3.828-8.847-3.826-9.084   c0.004-0.517,0.425-0.934,0.941-0.934c0.002,0,0.005,0,0.007,0c0.52,0.004,0.938,0.429,0.934,0.947c0,0.072,0.02,4.986,3.157,7.633   c0.396,0.335,0.447,0.928,0.112,1.325C38.183,59.479,37.917,59.592,37.648,59.592z"></path></g><g><path d="M32.215,59.914c-0.214,0-0.431-0.071-0.605-0.221c-3.83-3.229-3.829-8.846-3.827-9.083c0.004-0.52,0.438-0.917,0.947-0.934   c0.52,0.004,0.938,0.428,0.934,0.947c0,0.072,0.021,4.986,3.158,7.632c0.397,0.334,0.447,0.928,0.113,1.325   C32.748,59.801,32.482,59.914,32.215,59.914z"></path></g><path d="M90.624,30.266c-0.387-0.027-0.726,0.266-0.753,0.655c-0.132,1.893-0.926,3.303-2.424,4.312  c-3.813,2.57-11.252,1.961-17.438,0.811c1.335-1.463,2.406-2.924,3.261-4.292c5.878-0.899,12.115-2.664,14.906-6.132  c1.403-1.745,1.845-3.778,1.314-6.043c-0.089-0.379-0.469-0.614-0.85-0.526c-0.378,0.089-0.614,0.468-0.524,0.848  c0.433,1.847,0.094,3.429-1.039,4.836c-2.352,2.92-7.629,4.537-12.885,5.43c1.794-3.33,2.265-5.792,2.265-5.792  C65.991,27.9,56.938,27.9,56.938,27.9H42.826c-8.595,0-15.886,1.789-21.499,4.92c2.154,6.734,7.023,12.227,13.285,15.132  c0.952-0.042,1.965-0.062,3.038-0.062c16.06,0,25.586-5.144,31.178-10.622c3.271,0.646,6.989,1.171,10.445,1.171  c3.504,0,6.74-0.539,8.961-2.036c1.857-1.251,2.882-3.063,3.043-5.385C91.305,30.63,91.013,30.293,90.624,30.266z M40.434,37.959  c-2.016,0-3.65-1.634-3.65-3.649c0-2.016,1.635-3.65,3.65-3.65s3.649,1.634,3.649,3.65C44.083,36.325,42.449,37.959,40.434,37.959z"></path></svg>