<svg xmlns="http://www.w3.org/2000/svg" xmlns:xlink="http://www.w3.org/1999/xlink" version="1.1" x="0px" y="0px" viewBox="0 0 100 100" style="enable-background:new 0 0 100 100;" xml:space="preserve"><g><polygon points="50,44.1 45.8,44.1 50,48.9 54.2,44.1  "></polygon><path d="M50,5.2c-21.2,0-38.3,17.2-38.3,38.3c0,16.9,10.9,31.2,26.1,36.3L50,94.8l12.2-14.9c15.2-5.1,26.1-19.4,26.1-36.3   C88.3,22.4,71.2,5.2,50,5.2z M34.8,36.5c-0.3,0.3-0.6,0.4-1,0.4s-0.7-0.1-1-0.4c-0.5-0.5-0.5-1.4,0-1.9l7-7c0.3-0.3,0.6-0.4,1-0.4   s0.7,0.1,1,0.4l4.2,4.2c0.5,0.5,0.5,1.4,0,1.9c-0.5,0.5-1.4,0.5-1.9,0l-3.3-3.3L34.8,36.5z M57.9,57c-2.1,1.5-5,2.3-7.9,2.3   c-3,0-5.8-0.8-7.9-2.3c-2.3-1.6-3.5-3.8-3.5-6.1c0-0.7,0.6-1.3,1.3-1.3s1.3,0.6,1.3,1.3c0,2.8,3.3,5.3,7.4,5.7v-5.1l-6.9-7.8   c-0.4-0.4-0.4-1-0.2-1.4c0.2-0.5,0.7-0.8,1.2-0.8H50h7.2c0.5,0,1,0.3,1.2,0.8c0.2,0.5,0.1,1.1-0.2,1.4l-6.9,7.8v5.1   c4.1-0.4,7.4-2.9,7.4-5.7c0-0.7,0.6-1.3,1.3-1.3c0.7,0,1.3,0.6,1.3,1.3C61.5,53.2,60.2,55.4,57.9,57z M67.2,36.1   c-0.3,0.3-0.6,0.4-1,0.4c-0.3,0-0.7-0.1-1-0.4l-5.6-5.6l-3.7,3.7c-0.5,0.5-1.4,0.5-1.9,0c-0.5-0.5-0.5-1.4,0-1.9l4.7-4.7   c0.5-0.5,1.4-0.5,1.9,0l6.6,6.6C67.7,34.7,67.7,35.6,67.2,36.1z"></path></g></svg>