<svg xmlns="http://www.w3.org/2000/svg" xmlns:xlink="http://www.w3.org/1999/xlink" version="1.1" x="0px" y="0px" viewBox="0 0 100 100" enable-background="new 0 0 100 100" xml:space="preserve"><path d="M94.234,41.842c-3.051-2.315-6.175-3.265-9.292-2.822c-3.632,0.516-6.266,2.798-7.508,4.104  c-15.669-15.843-35.199-13.22-35.346-13.197c-9.144,0.821-17.315,3.702-24.284,8.562C10.707,43.438,7.407,48.66,6.317,50.675  c-1.314,2.432-1.648,4.645-0.995,6.579c0.746,2.204,2.553,3.281,3.077,3.554c7.248,5.906,14.072,7.82,19.881,7.82  c1.117,0,2.194-0.073,3.231-0.2c2.722,4.216,7.238,4.959,10.065,4.959c1.427,0,2.424-0.188,2.541-0.211  c0.471-0.093,0.813-0.497,0.834-0.977c0.02-0.479-0.292-0.912-0.753-1.046c-0.139-0.04-3.296-1.009-4.601-4.987  c3.15-1.395,5.336-2.999,6.224-3.712c1.889,1.668,4.665,3.214,8.405,2.933c7.52-0.564,9.491-5.751,9.571-5.972  c0.124-0.339,0.063-0.718-0.161-1.001c-0.224-0.283-0.572-0.435-0.937-0.388c-5.964,0.688-9.189-1.265-10.329-2.174  c2.161-4.622,5.198-7.646,9.039-8.995c5.703-2.003,11.702,0.224,13.685,1.097c-1.572,9.896,6.247,13.166,6.328,13.199  c0.392,0.158,0.842,0.061,1.138-0.243c3.706-3.85,3.426-8.638,3.037-10.843c8.124-1.247,9.003-7.001,9.038-7.256  C94.687,42.44,94.533,42.069,94.234,41.842z M40.414,71.244c-2.096-0.184-4.748-0.929-6.608-3.205  c1.379-0.29,2.67-0.665,3.854-1.094C38.33,68.916,39.378,70.298,40.414,71.244z M9.627,59.123c-0.071-0.058-0.149-0.107-0.233-0.144  c-0.005-0.003-0.22-0.104-0.516-0.317c0.87-1.357,2.703-2.511,5.138-3.215c4.809-1.39,10.364-0.684,14.153,1.797  c6.304,4.126,12.829,2.897,15.104,2.272c0.255,0.389,0.619,0.898,1.091,1.454C41.505,63.292,27.119,73.448,9.627,59.123z   M60.737,44.889c-4.601,1.61-8.159,5.247-10.578,10.809c-0.162,0.372-0.092,0.803,0.177,1.107c0.143,0.161,3.334,3.626,10.52,3.44  c-1.056,1.23-3.102,2.792-6.785,3.069c-6.155,0.458-9.278-5.275-9.407-5.518c-0.184-0.351-0.544-0.556-0.921-0.556  c-0.121,0-0.243,0.021-0.362,0.065c-0.065,0.024-6.018,2.147-12.173-0.757c2.76-2.818,14.401-13.484,30.817-12.042  C61.596,44.617,61.166,44.739,60.737,44.889z M84.231,48.139c-0.312,0.028-0.594,0.198-0.769,0.459  c-0.174,0.261-0.222,0.587-0.128,0.887c0.069,0.225,1.593,5.329-1.768,9.416c-1.645-0.946-5.759-4.095-4.284-11.339  c0.092-0.452-0.124-0.911-0.531-1.128c-0.14-0.074-1.628-0.841-3.874-1.503c-0.014-0.006-0.023-0.018-0.038-0.024  c-23.757-9.062-40.993,7.918-43.517,10.602c-0.004-0.002-0.007-0.004-0.011-0.007c-4.277-2.801-10.508-3.605-15.872-2.055  c-2.677,0.774-4.738,2.025-5.958,3.592c-0.069-0.142-0.132-0.293-0.186-0.452c-0.461-1.364-0.174-3.02,0.855-4.922  c3.503-6.481,14.634-17.915,34.182-19.671c0.194-0.029,19.326-2.597,34.387,13.386c0.211,0.224,0.522,0.341,0.816,0.324  c0.307-0.017,0.59-0.17,0.775-0.416c0.026-0.036,2.759-3.624,6.943-4.21c2.364-0.329,4.768,0.349,7.17,2.019  C91.969,44.421,90.262,47.584,84.231,48.139z"></path></svg>