<svg xmlns="http://www.w3.org/2000/svg" xmlns:xlink="http://www.w3.org/1999/xlink" version="1.1" x="0px" y="0px" viewBox="0 0 100 100" enable-background="new 0 0 100 100" xml:space="preserve"><g><path fill="#000000" d="M54.175,40.722h-3.711v-7.423h3.711v-3.711H5.928v3.711H9.64v7.423H5.928v3.711h48.247V40.722z    M17.062,40.722h-3.711v-7.423h3.711V40.722z M24.484,40.722h-3.711v-7.423h3.711V40.722z M31.907,40.722h-3.711v-7.423h3.711   V40.722z M39.33,40.722h-3.712v-7.423h3.712V40.722z M46.753,40.722h-3.712v-7.423h3.712V40.722z"></path><path fill="#000000" d="M22.629,59.278c-5.125,0-9.278,4.155-9.278,9.278c0,5.125,4.153,9.278,9.278,9.278s9.278-4.153,9.278-9.278   C31.907,63.434,27.754,59.278,22.629,59.278 M22.629,72.732c-2.302,0-4.176-1.872-4.176-4.175c0-2.301,1.874-4.175,4.176-4.175   s4.175,1.874,4.175,4.175C26.804,70.86,24.931,72.732,22.629,72.732"></path><path fill="#000000" d="M78.299,59.278c-5.125,0-9.278,4.155-9.278,9.278c0,5.125,4.153,9.278,9.278,9.278s9.278-4.153,9.278-9.278   C87.577,63.434,83.424,59.278,78.299,59.278 M78.299,72.732c-2.302,0-4.175-1.872-4.175-4.175c0-2.301,1.873-4.175,4.175-4.175   s4.176,1.874,4.176,4.175C82.475,70.86,80.601,72.732,78.299,72.732"></path><path fill="#000000" d="M91.289,29.587h-7.423v-7.422h-7.423v7.422h-12.99c-3.073,0-5.566,2.494-5.566,5.567v20.412v7.423h-3.712   v-7.423v-7.422H5.928v7.422h5.567C6.084,55.567,5,70.413,5,70.413h4.788c-0.087-0.609-0.148-1.225-0.148-1.856   c0-7.172,5.816-12.99,12.989-12.99s12.989,5.817,12.989,12.99c0,0.631-0.058,1.247-0.145,1.856h29.984   c-0.087-0.609-0.148-1.225-0.148-1.856c0-7.172,5.816-12.99,12.989-12.99s12.99,5.817,12.99,12.99c0,0.631-0.059,1.247-0.146,1.856   H95V55.567L91.289,29.587z M69.021,40.722h-7.423v-7.423h7.423V40.722z M72.732,48.145V33.299h3.711h7.423h3.711l1.855,14.846   H72.732z"></path></g></svg>