<svg xmlns="http://www.w3.org/2000/svg" xmlns:xlink="http://www.w3.org/1999/xlink" version="1.1" x="0px" y="0px" viewBox="0 0 100 100" enable-background="new 0 0 100 100" xml:space="preserve"><g><path fill="#000000" d="M90.902,89.48c-8.018-5.121-5.358-11.2-5.358-11.2c7.572-8.46,7.915-20.573,7.915-20.573   c-0.89-23.381-21.524-30.66-21.524-30.66c-2.893-3.787-1.119-16.084-1.119-16.084C73.708,5.616,70.601,5,70.601,5   c-17.147,7.795-22.047,18.482-22.047,18.482c-9.351,0.223-21.929,4.887-21.929,4.887C2.128,40.174,12.257,58.891,12.257,58.891   S2.645,71.587,6.688,74.255c5.8,3.827,14.254-8.24,14.254-8.24c9.335,1.674,14.25-2.448,14.25-2.448   C42.318,78.041,57.016,74.48,57.016,74.48s4.514-0.61-1.052-4.843c-5.566-4.23-7.304-9.25-7.304-9.25   c3.784,0.447,22.163-2.165,22.163-2.165c7.124-0.223,10.338,3.502,10.338,3.502c7.352,11.58-7.911,20.938-7.911,20.938   c-17.37,0.445-13.341,3.618-13.341,3.618c9.802,9.575,18.26,1.558,18.26,1.558s5.569,9.353,12.917,6.682   C98.436,91.846,90.902,89.48,90.902,89.48 M25.53,55.638c-2.017,0-3.652-1.634-3.652-3.652c0-2.016,1.635-3.652,3.652-3.652   c2.016,0,3.652,1.636,3.652,3.652C29.182,54.003,27.546,55.638,25.53,55.638"></path></g></svg>