<svg xmlns:dc="http://purl.org/dc/elements/1.1/" xmlns:cc="http://creativecommons.org/ns#" xmlns:rdf="http://www.w3.org/1999/02/22-rdf-syntax-ns#" xmlns:svg="http://www.w3.org/2000/svg" xmlns="http://www.w3.org/2000/svg" xmlns:sodipodi="http://sodipodi.sourceforge.net/DTD/sodipodi-0.dtd" xmlns:inkscape="http://www.inkscape.org/namespaces/inkscape" viewBox="0 0 32 32" version="1.1" x="0px" y="0px"><g transform="translate(0,-1020.3622)"><path style="color:#000000;font-style:normal;font-variant:normal;font-weight:normal;font-stretch:normal;font-size:medium;line-height:normal;font-family:sans-serif;text-indent:0;text-align:start;text-decoration:none;text-decoration-line:none;text-decoration-style:solid;text-decoration-color:#000000;letter-spacing:normal;word-spacing:normal;text-transform:none;direction:ltr;block-progression:tb;writing-mode:lr-tb;baseline-shift:baseline;text-anchor:start;white-space:normal;clip-rule:nonzero;display:inline;overflow:visible;visibility:visible;opacity:1;isolation:auto;mix-blend-mode:normal;color-interpolation:sRGB;color-interpolation-filters:linearRGB;solid-color:#000000;solid-opacity:1;fill:#000000;fill-opacity:1;fill-rule:nonzero;stroke:none;stroke-width:0.99999988px;stroke-linecap:round;stroke-linejoin:round;stroke-miterlimit:4;stroke-dasharray:none;stroke-dashoffset:0;stroke-opacity:1;color-rendering:auto;image-rendering:auto;shape-rendering:auto;text-rendering:auto;enable-background:accumulate" d="M 16 2 C 8.2739361 2 2 8.274 2 16 C 2 23.7261 8.2739361 30 16 30 C 23.726064 30 30 23.7261 30 16 C 30 8.274 23.726064 2 16 2 z M 16 3 C 23.185624 3 29 8.8144 29 16 C 29 23.1857 23.185624 29 16 29 C 8.8143761 29 3 23.1857 3 16 C 3 8.8144 8.8143761 3 16 3 z M 15.992188 10 C 15.716048 10 15.495686 10.231712 15.5 10.507812 L 15.5 12.507812 C 15.4904 13.184013 16.509557 13.184013 16.5 12.507812 L 16.5 10.507812 C 16.5044 10.225512 16.27445 9.9956 15.992188 10 z M 12.730469 11.878906 C 12.351163 11.893906 12.125816 12.308766 12.320312 12.634766 L 12.816406 13.494141 C 13.149739 14.072241 14.016927 13.572141 13.683594 12.994141 L 13.1875 12.134766 C 13.09559 11.970166 12.918876 11.871206 12.730469 11.878906 z M 19.253906 11.878906 C 19.071048 11.878906 18.901776 11.974866 18.8125 12.134766 L 18.316406 12.994141 C 17.983073 13.572241 18.850261 14.072241 19.183594 13.494141 L 19.679688 12.634766 C 19.877318 12.302966 19.640128 11.881906 19.253906 11.878906 z M 22.517578 13.75 L 22.517578 13.751953 C 22.422458 13.751953 22.328272 13.772312 22.246094 13.820312 L 20.513672 14.820312 C 19.923506 15.150312 20.432392 16.033 21.013672 15.6875 L 22.746094 14.6875 C 23.191929 14.441 23.02682 13.7637 22.517578 13.75 z M 9.4667969 13.751953 C 8.9651428 13.779953 8.8135805 14.447453 9.2539062 14.689453 L 10.986328 15.689453 C 11.564461 16.022753 12.064461 15.155566 11.486328 14.822266 L 9.7539062 13.822266 C 9.6822053 13.779266 9.6009608 13.754953 9.5175781 13.751953 C 9.5006621 13.751053 9.4837129 13.751053 9.4667969 13.751953 z M 16.023438 14.005859 L 16.023438 14.007812 C 15.003906 13.997813 13.981838 14.378178 13.199219 15.142578 C 11.888459 16.422978 11.667292 18.391075 12.519531 19.921875 C 12.25677 19.838875 12.014735 19.691863 11.828125 19.476562 C 11.728385 19.361662 11.581739 19.298387 11.429688 19.304688 C 11.291946 19.314687 11.162618 19.372662 11.072266 19.476562 C 10.782626 19.810862 10.36888 19.9996 9.9335938 20 C 9.5131077 19.9995 9.1374671 19.828928 8.8613281 19.548828 C 8.3925278 19.073628 7.6797184 19.776653 8.1484375 20.251953 C 8.6035875 20.713753 9.2402229 21 9.9355469 21 C 10.516862 20.9994 11.006706 20.668688 11.451172 20.304688 C 11.895425 20.668087 12.38593 20.9994 12.966797 21 L 12.96875 21 C 13.646733 20.99 14.026683 20.622888 14.484375 20.304688 C 14.928628 20.668087 15.419133 20.9994 16 21 C 16.58082 20.9994 17.071344 20.668088 17.515625 20.304688 C 17.873334 20.648588 18.34232 21.0048 19.03125 21 L 19.033203 21 C 19.614023 20.9994 20.104548 20.668088 20.548828 20.304688 C 20.993265 20.668588 21.483092 20.9994 22.064453 21 C 22.759717 21 23.39637 20.713853 23.851562 20.251953 C 24.320363 19.776653 23.607472 19.073528 23.138672 19.548828 C 22.862506 19.829028 22.486952 19.9995 22.066406 20 C 21.631177 19.9996 21.217404 19.810862 20.927734 19.476562 C 20.728336 19.246463 20.371273 19.246463 20.171875 19.476562 C 19.984741 19.692562 19.742143 19.838975 19.478516 19.921875 C 20.322516 18.407475 20.117703 16.460281 18.833984 15.175781 C 18.060783 14.401881 17.042969 14.012059 16.023438 14.005859 z M 16.017578 15.003906 C 16.781353 15.003906 17.543808 15.301366 18.126953 15.884766 C 19.211908 16.970366 19.275961 18.655025 18.345703 19.828125 C 18.177906 19.741125 18.022651 19.626316 17.894531 19.478516 C 17.695133 19.248416 17.33807 19.248416 17.138672 19.478516 C 16.849026 19.812816 16.435287 20.001553 16 20.001953 C 15.56477 20.001553 15.150992 19.812816 14.861328 19.478516 C 14.66193 19.248416 14.304867 19.248416 14.105469 19.478516 C 13.976871 19.626916 13.820871 19.738872 13.652344 19.826172 C 12.715286 18.640872 12.792623 16.941528 13.898438 15.861328 C 14.48871 15.284828 15.253805 14.999306 16.017578 15.003906 z M 9.4570312 17.505859 C 8.790619 17.539859 8.8413756 18.539459 9.5078125 18.505859 L 10.5 18.505859 C 11.176156 18.515859 11.176156 17.496259 10.5 17.505859 L 9.5078125 17.505859 C 9.4908965 17.504959 9.4739472 17.504959 9.4570312 17.505859 z M 21.449219 17.505859 C 20.782765 17.539859 20.833525 18.539459 21.5 18.505859 L 22.492188 18.505859 C 23.168343 18.515859 23.168343 17.496259 22.492188 17.505859 L 21.5 17.505859 C 21.48308 17.504959 21.466139 17.504959 21.449219 17.505859 z " transform="translate(0,1020.3622)"></path></g></svg>