<svg xmlns="http://www.w3.org/2000/svg" xmlns:xlink="http://www.w3.org/1999/xlink" version="1.1" x="0px" y="0px" viewBox="0 0 100 100" enable-background="new 0 0 100 100" xml:space="preserve"><g><path fill="#000000" d="M77.658,27.456H10.202C7.328,27.456,5,29.786,5,32.658v25.176c0,1.074,0.491,2.083,1.345,2.74   c2.125,1.638,6.029,4.637,6.039,4.584c1.296,4.274,5.262,7.386,9.958,7.386c4.528,0,8.371-2.897,9.8-6.937h39.359   c1.431,4.039,5.271,6.937,9.802,6.937c4.528,0,8.371-2.897,9.801-6.937h0.428c1.914,0,3.469-1.551,3.469-3.469V44.798   C95,35.219,87.233,27.456,77.658,27.456 M22.342,67.342c-2.874,0-5.203-2.329-5.203-5.203c0-2.872,2.329-5.202,5.203-5.202   s5.202,2.33,5.202,5.202C27.544,65.013,25.216,67.342,22.342,67.342 M81.303,67.342c-2.874,0-5.202-2.329-5.202-5.203   c0-2.872,2.328-5.202,5.202-5.202s5.202,2.33,5.202,5.202C86.505,65.013,84.177,67.342,81.303,67.342 M86.472,51.843   c-0.258,0.125-0.51,0.21-0.761,0.254c-1.968,0.325-3.966-2.03-5.216-3.259c-1.262-1.234-2.906-2.31-4.539-2.956   c-1.313-0.521-2.716-0.851-4.118-1.012c-0.132-0.015-0.459-0.042-0.874-0.072H15.405c-1.917,0-3.469-1.552-3.469-3.469v-3.468   c0-1.914,1.552-3.469,3.469-3.469h60.912v0.023c0.957,0.018,1.903,0.102,2.313,0.171c3.901,0.676,7.234,3.206,8.727,6.908   C88.4,44.09,89.396,50.434,86.472,51.843"></path></g></svg>