<svg xmlns="http://www.w3.org/2000/svg" xmlns:xlink="http://www.w3.org/1999/xlink" version="1.1" x="0px" y="0px" viewBox="0 0 100 100" enable-background="new 0 0 100 100" xml:space="preserve"><path d="M89.643,61.326c0.107-0.313,0.206-0.637,0.304-0.964c0.327-1.085,0.636-2.11,1.303-2.539  c0.175-0.112,0.375-0.205,0.575-0.302c0.507-0.245,1.138-0.55,1.626-1.092c0.312-0.346,0.427-0.826,0.305-1.275  c-0.122-0.449-0.463-0.806-0.907-0.947c-3.252-1.035-6.9-0.824-10.012,0.578c-2.543,1.146-4.673,3.089-6.162,5.617  c-0.12,0.203-0.375,0.289-0.596,0.205c-7.138-2.813-14.656-6.18-21.279-11.731c-3.283-2.752-6.34-5.903-9.297-8.95  c-0.719-0.742-1.439-1.483-2.162-2.219c-8.051-8.202-20.386-18.852-34.506-16.682c-0.723,0.111-1.354,0.47-1.819,0.979  c-0.179,0.104-0.339,0.244-0.46,0.429c-0.161,0.247-0.23,0.526-0.22,0.8c-0.072,0.249-0.125,0.506-0.133,0.776  c-0.203,7.256,2.86,13.934,5.551,18.942c3.269,6.084,7.215,11.173,11.728,15.128c2.321,2.034,4.811,3.778,7.402,5.186  c5.777,3.137,12.665,4.928,21.676,5.635c7.312,0.573,14.679,0.236,21.899-1.003c0,0,0,0,0,0c0.579,0.276,1.062,0.791,1.36,1.451  c1.847,4.097,4.918,7.27,8.647,8.936c1.248,0.557,2.945,0.974,4.595,0.974c0.82,0,1.628-0.103,2.362-0.342  c0.467-0.152,0.817-0.544,0.917-1.025c0.1-0.482-0.066-0.979-0.435-1.305c-1.281-1.13-1.784-2.494-2.264-4.616  c-0.536-2.369-1.575-4.107-3.205-5.335c-0.06-0.045-0.154-0.116-0.27-0.201C87.753,65.069,88.969,63.287,89.643,61.326z   M16.128,30.229c0.399,4.097,0.989,8.107,1.577,11.883c0.342,2.195,0.738,4.715,1.373,7.199c-0.772-1.012-1.518-2.068-2.238-3.169  c-1.446-5.597-2.357-11.374-2.733-17.232C14.784,29.347,15.458,29.787,16.128,30.229z M13.158,28.303  c0.297,5.203,1.008,10.347,2.143,15.362c-0.385-0.658-0.764-1.327-1.132-2.012c-0.508-0.946-1.03-1.957-1.539-3.018  c-1.079-3.763-1.607-7.704-1.556-11.663c0.071,0.045,0.142,0.091,0.213,0.137C11.904,27.502,12.532,27.903,13.158,28.303z   M10.178,26.399c-0.067,2.527,0.095,5.048,0.484,7.529c-0.918-2.614-1.581-5.417-1.701-8.31C9.367,25.878,9.771,26.14,10.178,26.399  z M20.573,51.181c-1.002-3.074-1.529-6.409-1.966-9.21c-0.55-3.53-1.101-7.264-1.497-11.076c0.635,0.449,1.263,0.941,1.891,1.486  c0.273,3.394,0.766,6.698,1.227,9.545c0.617,3.804,1.387,7.997,2.743,11.883C22.152,52.974,21.349,52.103,20.573,51.181z   M27.829,52.493c0.268,0.647,0.599,1.269,0.98,1.859c0.302,1.738,0.667,3.455,1.084,5.128c-0.56-0.36-1.113-0.735-1.659-1.129  c-1.386-2.838-2.181-5.947-2.815-8.939c-0.855-4.028-1.484-8.141-1.898-12.263c0.159,0.195,0.315,0.381,0.477,0.584l0.308,0.389  c0.246,0.312,0.602,0.49,0.973,0.518c0.941,0.141,1.635,1.279,1.814,2.299c0.179,1.018,0.054,2.119-0.08,3.285  c-0.049,0.426-0.097,0.852-0.132,1.277C26.666,48.107,26.986,50.459,27.829,52.493z M22.493,35.926  c0.408,4.594,1.079,9.188,2.032,13.677c0.535,2.521,1.186,5.128,2.198,7.607c-0.484-0.386-0.964-0.779-1.434-1.191  c-0.259-0.227-0.51-0.47-0.765-0.705c-1.776-4.287-2.686-9.168-3.393-13.534c-0.413-2.553-0.851-5.475-1.132-8.492  C20.813,34.063,21.638,34.939,22.493,35.926z M31.005,60.166c-0.03-0.108-0.06-0.214-0.089-0.324  c-0.329-1.271-0.612-2.578-0.874-3.896c0.684,0.751,1.462,1.413,2.309,1.97c0.435,1.261,0.892,2.506,1.385,3.714  c-0.52-0.251-1.041-0.501-1.542-0.773C31.793,60.64,31.4,60.401,31.005,60.166z M47.632,60.901c0.65,1.703,1.415,3.462,2.506,5.014  c-0.649-0.071-1.277-0.154-1.902-0.238c-1.666-2.17-3.037-4.583-4.062-7.125C45.319,59.364,46.474,60.147,47.632,60.901z   M42.827,57.579c0.99,2.82,2.405,5.504,4.157,7.929c-0.843-0.128-1.658-0.274-2.458-0.429c-2.073-2.853-3.551-6.095-4.342-9.525  C41.054,56.246,41.935,56.923,42.827,57.579z M39.065,54.654c0.681,3.633,2.093,7.092,4.152,10.155  c-0.727-0.158-1.446-0.323-2.139-0.505c-1.086-1.675-2.004-3.622-2.786-5.901c-0.648-1.888-1.145-3.846-1.594-5.794  C37.473,53.306,38.26,53.99,39.065,54.654z M38.472,63.533c-1.159-1.873-2.142-3.876-2.928-5.954  c0.042-0.337-0.027-0.685-0.239-0.975c-0.421-0.577-0.447-1.753-0.066-2.995c0.127-0.412,0.289-0.826,0.459-1.256  c0.482,2.122,1.015,4.268,1.728,6.346c0.675,1.968,1.452,3.699,2.348,5.231C39.337,63.801,38.897,63.672,38.472,63.533z   M33.595,58.64c0.193,0.095,0.4,0.141,0.604,0.141c0.261,0,0.516-0.081,0.738-0.224c0.621,1.551,1.351,3.059,2.179,4.499  c-0.735-0.27-1.45-0.558-2.147-0.863c-0.099-0.211-0.195-0.428-0.29-0.659c-0.393-0.952-0.769-1.928-1.126-2.918  C33.567,58.624,33.58,58.633,33.595,58.64z M51.361,66.033c-1.028-1.274-1.779-2.773-2.407-4.285  c1.159,0.734,2.315,1.441,3.463,2.12c0.28,0.799,0.604,1.582,0.984,2.34c-0.208-0.015-0.416-0.023-0.624-0.039  C52.29,66.131,51.834,66.077,51.361,66.033z M54.475,66.276c-0.295-0.547-0.572-1.103-0.811-1.676  c1.064,0.616,2.116,1.21,3.149,1.78C56.033,66.355,55.254,66.321,54.475,66.276z M83.74,64.863  c-0.542,0.389-0.853,1.016-0.833,1.679c0.02,0.657,0.365,1.258,0.923,1.608c0.402,0.252,0.808,0.56,0.986,0.693  c1.078,0.812,1.763,1.999,2.155,3.732c0.295,1.304,0.651,2.647,1.366,3.905c-0.931-0.084-1.918-0.324-2.752-0.697  c-3.115-1.392-5.696-4.077-7.267-7.561c-0.565-1.252-1.517-2.246-2.68-2.799c-0.159-0.076-0.585-0.278-1.144-0.278  c-0.124,0-0.255,0.01-0.39,0.033c-3.807,0.658-7.657,1.048-11.518,1.188c-8.001-4.182-18.084-9.924-25.854-17.471  c0.18-1.565-0.1-3.17-0.811-4.581c-0.34-0.676-1.165-0.948-1.839-0.607c-0.676,0.34-0.948,1.164-0.607,1.839  c0.534,1.06,0.702,2.285,0.473,3.449c-0.137,0.695-0.416,1.393-0.712,2.133c-0.214,0.535-0.435,1.089-0.616,1.675  c-0.109,0.357-0.251,0.905-0.33,1.547c-0.819-0.839-1.483-1.83-1.93-2.908c-0.675-1.627-0.927-3.551-0.749-5.718  c0.033-0.396,0.078-0.793,0.124-1.19c0.149-1.309,0.304-2.662,0.056-4.071c-0.322-1.83-1.587-3.891-3.651-4.44  c-0.485-0.609-0.957-1.172-1.423-1.715c0.603-0.237,1.094-0.738,1.28-1.41c0.314-1.136-0.352-2.311-1.487-2.625  c-1.016-0.281-2.058,0.225-2.493,1.147c-1.298-1.252-2.579-2.288-3.915-3.176c-1.769-1.175-3.587-2.33-5.345-3.447  c-0.646-0.411-1.288-0.828-1.933-1.24c12.245-0.976,23.247,8.615,30.565,16.069c0.719,0.733,1.435,1.47,2.151,2.208  c3.005,3.097,6.113,6.299,9.504,9.142c6.922,5.802,14.681,9.283,22.034,12.181c1.484,0.586,3.151,0.012,3.961-1.365  c1.2-2.037,2.903-3.597,4.927-4.509c1.529-0.689,3.226-1.007,4.897-0.985c-0.837,0.948-1.204,2.167-1.538,3.273  c-0.088,0.293-0.176,0.584-0.272,0.865C86.448,62.195,85.272,63.767,83.74,64.863z"></path></svg>