<svg xmlns="http://www.w3.org/2000/svg" viewBox="0 0 64 64" x="0px" y="0px"><g><path d="M9,43h2V40.5a1.5,1.5,0,0,1,3,0V50a4,4,0,0,0,8,0V19h3.9a4.67,4.67,0,0,1-.744,1.6,6.431,6.431,0,0,0,0,7.357,4.442,4.442,0,0,1,0,5.21,6.428,6.428,0,0,0,0,7.357,4.444,4.444,0,0,1,0,5.21,6.439,6.439,0,0,0,0,7.362,4.455,4.455,0,0,1,0,5.218A6.066,6.066,0,0,0,24,62h2a4.154,4.154,0,0,1,.844-2.609,6.442,6.442,0,0,0,0-7.364,4.45,4.45,0,0,1,0-5.215,6.43,6.43,0,0,0,0-7.358,4.443,4.443,0,0,1,0-5.209,6.432,6.432,0,0,0,0-7.358,4.441,4.441,0,0,1,0-5.208A6.219,6.219,0,0,0,27.927,19H31.9a4.67,4.67,0,0,1-.744,1.6,6.431,6.431,0,0,0,0,7.357,4.442,4.442,0,0,1,0,5.21,6.428,6.428,0,0,0,0,7.357,4.444,4.444,0,0,1,0,5.21,6.439,6.439,0,0,0,0,7.362,4.455,4.455,0,0,1,0,5.218A6.066,6.066,0,0,0,30,62h2a4.154,4.154,0,0,1,.844-2.609,6.442,6.442,0,0,0,0-7.364,4.45,4.45,0,0,1,0-5.215,6.43,6.43,0,0,0,0-7.358,4.443,4.443,0,0,1,0-5.209,6.432,6.432,0,0,0,0-7.358,4.441,4.441,0,0,1,0-5.208A6.219,6.219,0,0,0,33.927,19H37.9a4.67,4.67,0,0,1-.744,1.6,6.431,6.431,0,0,0,0,7.357,4.442,4.442,0,0,1,0,5.21,6.428,6.428,0,0,0,0,7.357,4.444,4.444,0,0,1,0,5.21,6.439,6.439,0,0,0,0,7.362,4.455,4.455,0,0,1,0,5.218A6.066,6.066,0,0,0,36,62h2a4.154,4.154,0,0,1,.844-2.609,6.442,6.442,0,0,0,0-7.364,4.45,4.45,0,0,1,0-5.215,6.43,6.43,0,0,0,0-7.358,4.443,4.443,0,0,1,0-5.209,6.432,6.432,0,0,0,0-7.358,4.441,4.441,0,0,1,0-5.208A6.219,6.219,0,0,0,39.927,19H42V40a4,4,0,0,0,8,0V30.5a1.5,1.5,0,0,1,3,0V33h2V30.5a3.5,3.5,0,0,0-7,0V40a2,2,0,0,1-4,0V19h1a1,1,0,0,0,1-1V16a14,14,0,0,0-28,0v2a1,1,0,0,0,1,1h1V50a2,2,0,0,1-4,0V40.5a3.5,3.5,0,0,0-7,0ZM35,12h1a1,1,0,0,1,1,1v1a1,1,0,0,0,1,1h1a1,1,0,0,1,1,1v1H24V16a1,1,0,0,1,1-1h1a1,1,0,0,0,1-1V13a1,1,0,0,1,1-1h1a1,1,0,0,0,1-1V10a1,1,0,0,1,1-1h2a1,1,0,0,1,1,1v1A1,1,0,0,0,35,12ZM20,16a12,12,0,0,1,24,0v1H42V16a3,3,0,0,0-3-3,3,3,0,0,0-3-3,3,3,0,0,0-3-3H31a3,3,0,0,0-3,3,3,3,0,0,0-3,3,3,3,0,0,0-3,3v1H20Z"></path></g></svg>