<svg xmlns:dc="http://purl.org/dc/elements/1.1/" xmlns:cc="http://creativecommons.org/ns#" xmlns:rdf="http://www.w3.org/1999/02/22-rdf-syntax-ns#" xmlns:svg="http://www.w3.org/2000/svg" xmlns="http://www.w3.org/2000/svg" xmlns:sodipodi="http://sodipodi.sourceforge.net/DTD/sodipodi-0.dtd" xmlns:inkscape="http://www.inkscape.org/namespaces/inkscape" viewBox="0 0 32 32" version="1.1" x="0px" y="0px"><g transform="translate(0,-1020.3622)"><path style="color:#000000;font-style:normal;font-variant:normal;font-weight:normal;font-stretch:normal;font-size:medium;line-height:normal;font-family:sans-serif;text-indent:0;text-align:start;text-decoration:none;text-decoration-line:none;text-decoration-style:solid;text-decoration-color:#000000;letter-spacing:normal;word-spacing:normal;text-transform:none;direction:ltr;block-progression:tb;writing-mode:lr-tb;baseline-shift:baseline;text-anchor:start;white-space:normal;clip-rule:nonzero;display:inline;overflow:visible;visibility:visible;opacity:1;isolation:auto;mix-blend-mode:normal;color-interpolation:sRGB;color-interpolation-filters:linearRGB;solid-color:#000000;solid-opacity:1;fill:#000000;fill-opacity:1;fill-rule:nonzero;stroke:none;stroke-width:0.99999988;stroke-linecap:round;stroke-linejoin:round;stroke-miterlimit:4;stroke-dasharray:none;stroke-dashoffset:0;stroke-opacity:1;color-rendering:auto;image-rendering:auto;shape-rendering:auto;text-rendering:auto;enable-background:accumulate" d="M 16 2 C 8.273936 2 2 8.274 2 16 C 2 23.7261 8.273936 30 16 30 C 23.726064 30 30 23.7261 30 16 C 30 8.274 23.726064 2 16 2 z M 16 3 C 23.185624 3 29 8.8144 29 16 C 29 23.1857 23.185624 29 16 29 C 8.814376 29 3 23.1857 3 16 C 3 8.8144 8.814376 3 16 3 z M 22.492188 9.0019531 L 22.492188 9.0039062 A 0.50004994 0.50004994 0 0 0 22.417969 9.0136719 L 20.5 9.0136719 C 20.116025 9.0136719 19.766643 9.16495 19.5 9.40625 C 19.233358 9.16495 18.883976 9.0136719 18.5 9.0136719 L 16.578125 9.0136719 A 0.50004994 0.50004994 0 0 0 16.492188 9.0039062 A 0.50004994 0.50004994 0 0 0 16.220703 9.0898438 A 0.50004994 0.50004994 0 0 0 16.214844 9.0898438 A 0.50004994 0.50004994 0 0 0 16.203125 9.0996094 A 0.50004994 0.50004994 0 0 0 16.175781 9.1191406 A 0.50004994 0.50004994 0 0 0 16.171875 9.1191406 A 0.50004994 0.50004994 0 0 0 16.138672 9.1503906 A 0.50004994 0.50004994 0 0 0 16.136719 9.1503906 A 0.50004994 0.50004994 0 0 0 16 9.5820312 L 16 11 C 16 12.0994 16.900645 13 18 13 L 19 13 L 19 14.5 C 19 15.3397 18.339672 16 17.5 16 L 9.5 16 A 0.50004994 0.50004994 0 0 0 9.0058594 16.613281 C 9.0379914 19.296981 10.737039 21.680063 13.269531 22.601562 C 13.664254 23.394663 14.46124 23.948181 15.394531 23.988281 A 0.50004994 0.50004994 0 0 0 15.507812 24 A 0.50004994 0.50004994 0 0 0 15.585938 23.990234 A 0.50004994 0.50004994 0 0 0 15.599609 23.990234 A 0.50004994 0.50004994 0 0 0 15.607422 23.990234 A 0.50004994 0.50004994 0 0 0 15.648438 23.980469 A 0.50004994 0.50004994 0 0 0 16 23.419922 L 16 22.964844 C 18.325952 22.785344 20.400207 21.390319 21.394531 19.261719 C 22.34782 17.220819 22.149008 14.854253 20.929688 13.001953 L 21 13.001953 C 22.099357 13.001953 23 12.101353 23 11.001953 L 23 9.5800781 A 0.50004994 0.50004994 0 0 0 22.886719 9.1777344 A 0.50004994 0.50004994 0 0 0 22.884766 9.1777344 A 0.50004994 0.50004994 0 0 0 22.853516 9.1445312 A 0.50004994 0.50004994 0 0 0 22.851562 9.1445312 A 0.50004994 0.50004994 0 0 0 22.849609 9.1445312 A 0.50004994 0.50004994 0 0 0 22.816406 9.1152344 A 0.50004994 0.50004994 0 0 0 22.492188 9.0019531 z M 17 10.011719 L 18.5 10.011719 C 18.785684 10.011719 19 10.226119 19 10.511719 A 0.50004994 0.50004994 0 1 0 20 10.511719 C 20 10.226119 20.214318 10.011719 20.5 10.011719 L 22 10.011719 L 22 11.011719 C 22 11.574419 21.562661 12.011719 21 12.011719 L 18 12.011719 C 17.437342 12.011719 17 11.574419 17 11.011719 L 17 10.011719 z M 20 13.431641 C 21.112044 15.016341 21.317524 17.072356 20.488281 18.847656 C 19.658151 20.624856 17.940061 21.800062 16 21.976562 L 16 19.511719 A 0.50004994 0.50004994 0 0 0 15.492188 19.005859 A 0.50004994 0.50004994 0 0 0 15 19.511719 L 15 22.417969 A 0.50004994 0.50004994 0 0 0 15 22.605469 L 15 22.921875 C 14.414268 22.718775 14 22.174119 14 21.511719 L 14 19.511719 A 0.50004994 0.50004994 0 0 0 13.492188 19.005859 A 0.50004994 0.50004994 0 0 0 13 19.511719 L 13 21.404297 C 11.316138 20.549897 10.196641 18.894219 10.035156 17.011719 L 17.5 17.011719 C 18.876318 17.011719 20.000002 15.888119 20 14.511719 L 20 13.431641 z M 11.5 18.011719 A 0.49999994 0.49999994 0 0 0 11 18.511719 A 0.49999994 0.49999994 0 0 0 11.5 19.011719 A 0.49999994 0.49999994 0 0 0 12 18.511719 A 0.49999994 0.49999994 0 0 0 11.5 18.011719 z " transform="translate(0,1020.3622)"></path></g></svg>